<svg xmlns="http://www.w3.org/2000/svg" viewBox="0 0 7200 2000"><defs><style>.cls-1{fill:#fff;}.cls-2{fill:red;}.cls-3{fill:none;stroke:red;stroke-linecap:round;stroke-linejoin:round;stroke-width:90px;}</style></defs><title>Kunthof-Red-TW-Default</title><g id="Kunthof-Red-TW"><g id="Layer_3" data-name="Layer 3"><path class="cls-1" d="M2119.69,1056.36v423.15q-8.79,2.91-23.42,6.6a133.69,133.69,0,0,1-32.2,3.65q-64.44,0-64.43-54.17V593.7q7.3-2.91,22.7-6.59a142.36,142.36,0,0,1,32.94-3.67q64.39,0,64.41,54.18v364.57l402.65-417.28q38.09,1.49,57.11,19t19,41a64.23,64.23,0,0,1-10.26,35.15Q2578,696.19,2559,715.22L2242.7,1025.61q133.23,130.34,230.59,232.08t167.64,164.71q-2.91,32.22-19.75,50.52t-43.2,18.31a75.83,75.83,0,0,1-44.66-13.91,306.91,306.91,0,0,1-40.26-34.43Z"/><path class="cls-1" d="M2800.54,807.47c4.87-1.94,12.45-4.15,22.68-6.59a142.54,142.54,0,0,1,33-3.67q61.49,0,61.48,54.18v376.29q0,95.16,49.78,135.43t137.64,40.26q58.56,0,99.56-12.44t64.43-25.63V807.47q7.3-2.91,22.68-6.59a136,136,0,0,1,31.49-3.67q62.94,0,63,54.18v509.53q0,30.74-8.05,49t-38.8,35.87q-33.68,19.05-93,36.61T3103.61,1500q-146.42,0-224.75-64.41t-78.32-202.07Z"/><path class="cls-1" d="M4028.21,920.21q-46.12-38.07-123.73-38.07-58.58,0-103.95,14.65t-77.6,33.66V1478a182.34,182.34,0,0,1-22,6.6,133.78,133.78,0,0,1-32.22,3.66q-63,0-62.94-52.71V936.31q0-30.73,12.44-50.5T3661.44,847q38.05-23.4,101-42.45t142-19q133.24,0,210.1,60t76.87,188.86V1478q-7.3,2.94-22.68,6.6a136.75,136.75,0,0,1-31.49,3.66q-63,0-62.95-52.71V1040.26Q4074.33,958.29,4028.21,920.21Z"/><path class="cls-1" d="M4642.4,1500q-102.49,0-166.18-45.38t-63.69-150.81V608.33c4.88-1.94,12.43-4.15,22.69-6.58a141.92,141.92,0,0,1,32.95-3.66q61.48,0,61.49,52.71V819.17h240.12a111.59,111.59,0,0,1,8.79,19.77A80.9,80.9,0,0,1,4783,866q0,49.77-43.94,49.78H4529.66v380.67q0,58.56,32.94,82.73t93,24.15q24.89,0,55.64-8.77t51.24-20.51a97.66,97.66,0,0,1,16.1,22q7.32,13.18,7.33,30.74,0,32.22-38.08,52.71T4642.4,1500Z"/><path class="cls-1" d="M5053.82,1484.64a133.78,133.78,0,0,1-32.22,3.66q-63,0-63-52.71V532.2q7.32-2.91,22.69-6.59a142.47,142.47,0,0,1,32.95-3.65q61.48,0,61.49,52.71V838.22q35.13-20.51,82.71-36.61t107.63-16.1q61.48,0,112,16.1t87.12,49q36.59,32.94,57.1,83.46t20.5,117.85V1478c-4.87,2-12.45,4.15-22.69,6.6a136.62,136.62,0,0,1-31.49,3.66q-63,0-62.95-52.71V1054.9q0-87.83-48.31-130.29T5250,882.14q-51.26,0-95.9,18.3t-78.34,44.64v533A184.68,184.68,0,0,1,5053.82,1484.64Z"/><path class="cls-1" d="M6390.58,1142.75q0,82-23.42,147.89t-66.62,112.73q-43.22,46.88-104.7,71.74T6058.21,1500q-76.16,0-137.64-24.89t-105.42-71.74q-43.92-46.84-67.34-112.73t-23.42-147.89q0-82,24.14-147.87t68.09-112.74Q5860.54,835.3,5922,810.4t136.17-24.89q74.67,0,136.17,24.89t104.69,71.74q43.18,46.86,67.35,112.74T6390.58,1142.75ZM6058.21,882.14q-99.57,0-156.67,68.82t-57.08,191.79q0,124.45,56.36,192.54t157.39,68.08q101,0,156.66-68.81t55.64-191.81q0-123-56.36-191.79T6058.21,882.14Z"/><path class="cls-1" d="M6690.71,842.59h289.91a119.5,119.5,0,0,1,8.79,19q4.4,11.7,4.39,27.82,0,48.33-45.4,48.32H6692.18V1478a184.68,184.68,0,0,1-22,6.6,133.78,133.78,0,0,1-32.22,3.66q-63,0-62.94-52.71V744.5q0-128.84,69.53-186.67t194-57.83q83.44,0,131,22t47.59,54.17q0,32.21-24.89,54.18-26.37-14.64-65.9-24.17a325.84,325.84,0,0,0-76.13-9.51q-89.31,0-124.45,36.61t-35.15,117.12Z"/></g><rect class="cls-2" x="990" y="200" width="90" height="1600" rx="30" ry="30"/><rect class="cls-2" x="959.79" y="400.14" width="868.43" height="90" rx="30" ry="30" transform="translate(409.33 -637.37) rotate(30)"/><rect class="cls-2" x="959.79" y="955.14" width="868.43" height="90" rx="30" ry="30" transform="translate(686.83 -563.01) rotate(30)"/><path class="cls-3" d="M894.5,955V600s-1-355-343-355-342,355-342,355-1,355,342,355c172,0,172-178,172-178s0-177-172-177"/><circle class="cls-2" cx="209.5" cy="1755" r="45"/><circle class="cls-2" cx="894.5" cy="1755" r="45"/><circle class="cls-2" cx="551.5" cy="1755" r="45"/><circle class="cls-2" cx="551.5" cy="1400" r="45"/></g></svg>