<svg id="Layer_1" data-name="Layer 1" xmlns="http://www.w3.org/2000/svg" viewBox="0 0 2000 2000"><defs><style>.cls-1{fill:#fff;}.cls-2{fill:none;stroke:#fff;stroke-linecap:round;stroke-linejoin:round;stroke-width:90px;}</style></defs><title>Kunthof-White-Default</title><rect class="cls-1" x="1025.5" y="200" width="90" height="1600" rx="30" ry="30"/><rect class="cls-1" x="995.29" y="400.14" width="868.43" height="90" rx="30" ry="30" transform="translate(414.09 -655.12) rotate(30)"/><rect class="cls-1" x="995.29" y="955.14" width="868.43" height="90" rx="30" ry="30" transform="translate(691.59 -580.76) rotate(30)"/><path class="cls-2" d="M930,955V600s-1-355-343-355S245,600,245,600s-1,355,342,355c172,0,172-178,172-178s0-177-172-177"/><circle class="cls-1" cx="245" cy="1755" r="45"/><circle class="cls-1" cx="930" cy="1755" r="45"/><circle class="cls-1" cx="587" cy="1755" r="45"/><circle class="cls-1" cx="587" cy="1400" r="45"/></svg>